<mxfile host="app.diagrams.net" agent="Mozilla/5.0 (Macintosh; Intel Mac OS X 10_15_7) AppleWebKit/605.1.15 (KHTML, like Gecko) Version/18.3.1 Safari/605.1.15" version="26.1.1">
  <diagram name="Page-1" id="Hv5dG85DTdpL7ibihWw3">
    <mxGraphModel dx="1010" dy="587" grid="1" gridSize="10" guides="1" tooltips="1" connect="1" arrows="1" fold="1" page="1" pageScale="1" pageWidth="850" pageHeight="1100" math="0" shadow="0">
      <root>
        <mxCell id="0" />
        <mxCell id="1" parent="0" />
        <mxCell id="srvxrOHvQ5lq2VC3O4od-21" value="" style="ellipse;whiteSpace=wrap;html=1;fillColor=#dae8fc;strokeColor=#6c8ebf;dashed=1;" vertex="1" parent="1">
          <mxGeometry x="275" y="105" width="265" height="90" as="geometry" />
        </mxCell>
        <mxCell id="srvxrOHvQ5lq2VC3O4od-18" value="" style="ellipse;whiteSpace=wrap;html=1;direction=south;fillColor=#f8cecc;strokeColor=#b85450;dashed=1;" vertex="1" parent="1">
          <mxGeometry x="495" y="190" width="170" height="390" as="geometry" />
        </mxCell>
        <mxCell id="srvxrOHvQ5lq2VC3O4od-16" value="" style="ellipse;whiteSpace=wrap;html=1;direction=south;fillColor=#fff2cc;strokeColor=#d6b656;dashed=1;" vertex="1" parent="1">
          <mxGeometry x="55" y="190" width="360" height="390" as="geometry" />
        </mxCell>
        <mxCell id="srvxrOHvQ5lq2VC3O4od-1" value="PC 1 - Client&lt;div&gt;&lt;span style=&quot;color: rgb(0, 136, 0);&quot;&gt;Node 0&lt;/span&gt;&lt;/div&gt;" style="rounded=1;whiteSpace=wrap;html=1;fontStyle=1" vertex="1" parent="1">
          <mxGeometry x="110" y="460" width="120" height="60" as="geometry" />
        </mxCell>
        <mxCell id="srvxrOHvQ5lq2VC3O4od-2" value="PC 2 - Server&lt;div&gt;&lt;span style=&quot;color: rgb(0, 136, 0);&quot;&gt;Node 1&lt;/span&gt;&lt;/div&gt;" style="rounded=1;whiteSpace=wrap;html=1;fontStyle=1" vertex="1" parent="1">
          <mxGeometry x="240" y="460" width="120" height="60" as="geometry" />
        </mxCell>
        <mxCell id="srvxrOHvQ5lq2VC3O4od-3" value="PC3 - Client&lt;div&gt;&lt;span style=&quot;color: rgb(0, 136, 0);&quot;&gt;Node 6&lt;/span&gt;&lt;/div&gt;" style="rounded=1;whiteSpace=wrap;html=1;fontStyle=1" vertex="1" parent="1">
          <mxGeometry x="520" y="460" width="120" height="60" as="geometry" />
        </mxCell>
        <mxCell id="srvxrOHvQ5lq2VC3O4od-4" value="Switch 1&lt;div&gt;&lt;span style=&quot;color: rgb(0, 136, 0);&quot;&gt;Node 2&lt;/span&gt;&lt;/div&gt;" style="whiteSpace=wrap;html=1;aspect=fixed;fontStyle=1" vertex="1" parent="1">
          <mxGeometry x="190" y="270" width="90" height="90" as="geometry" />
        </mxCell>
        <mxCell id="srvxrOHvQ5lq2VC3O4od-5" value="Switch 1&lt;div&gt;&lt;span style=&quot;color: rgb(0, 136, 0);&quot;&gt;Node 5&lt;/span&gt;&lt;/div&gt;" style="whiteSpace=wrap;html=1;aspect=fixed;fontStyle=1" vertex="1" parent="1">
          <mxGeometry x="535" y="270" width="90" height="90" as="geometry" />
        </mxCell>
        <mxCell id="srvxrOHvQ5lq2VC3O4od-6" value="&lt;span&gt;Router 1&lt;/span&gt;&lt;div&gt;&lt;span style=&quot;color: rgb(0, 136, 0);&quot;&gt;&lt;span&gt;Node 3&lt;/span&gt;&lt;/span&gt;&lt;/div&gt;" style="ellipse;whiteSpace=wrap;html=1;aspect=fixed;fontStyle=1" vertex="1" parent="1">
          <mxGeometry x="195" y="110" width="80" height="80" as="geometry" />
        </mxCell>
        <mxCell id="srvxrOHvQ5lq2VC3O4od-7" value="Router 2&lt;div&gt;&lt;span style=&quot;color: rgb(0, 136, 0);&quot;&gt;Node 4&lt;/span&gt;&lt;/div&gt;" style="ellipse;whiteSpace=wrap;html=1;aspect=fixed;fontStyle=1" vertex="1" parent="1">
          <mxGeometry x="540" y="110" width="80" height="80" as="geometry" />
        </mxCell>
        <mxCell id="srvxrOHvQ5lq2VC3O4od-9" value="" style="endArrow=none;html=1;rounded=0;entryX=0.5;entryY=1;entryDx=0;entryDy=0;exitX=0.5;exitY=0;exitDx=0;exitDy=0;fontStyle=1" edge="1" parent="1" source="srvxrOHvQ5lq2VC3O4od-4" target="srvxrOHvQ5lq2VC3O4od-6">
          <mxGeometry width="50" height="50" relative="1" as="geometry">
            <mxPoint x="400" y="330" as="sourcePoint" />
            <mxPoint x="450" y="280" as="targetPoint" />
          </mxGeometry>
        </mxCell>
        <mxCell id="srvxrOHvQ5lq2VC3O4od-10" value="" style="endArrow=none;html=1;rounded=0;entryX=0.75;entryY=1;entryDx=0;entryDy=0;exitX=0.5;exitY=0;exitDx=0;exitDy=0;fontStyle=1" edge="1" parent="1" source="srvxrOHvQ5lq2VC3O4od-2" target="srvxrOHvQ5lq2VC3O4od-4">
          <mxGeometry width="50" height="50" relative="1" as="geometry">
            <mxPoint x="245" y="280" as="sourcePoint" />
            <mxPoint x="245" y="200" as="targetPoint" />
          </mxGeometry>
        </mxCell>
        <mxCell id="srvxrOHvQ5lq2VC3O4od-11" value="" style="endArrow=none;html=1;rounded=0;entryX=0.25;entryY=1;entryDx=0;entryDy=0;exitX=0.5;exitY=0;exitDx=0;exitDy=0;fontStyle=1" edge="1" parent="1" source="srvxrOHvQ5lq2VC3O4od-1" target="srvxrOHvQ5lq2VC3O4od-4">
          <mxGeometry width="50" height="50" relative="1" as="geometry">
            <mxPoint x="300" y="470" as="sourcePoint" />
            <mxPoint x="268" y="370" as="targetPoint" />
          </mxGeometry>
        </mxCell>
        <mxCell id="srvxrOHvQ5lq2VC3O4od-12" value="" style="endArrow=none;html=1;rounded=0;entryX=0.5;entryY=1;entryDx=0;entryDy=0;fontStyle=1" edge="1" parent="1" source="srvxrOHvQ5lq2VC3O4od-3" target="srvxrOHvQ5lq2VC3O4od-5">
          <mxGeometry width="50" height="50" relative="1" as="geometry">
            <mxPoint x="170" y="470" as="sourcePoint" />
            <mxPoint x="223" y="370" as="targetPoint" />
          </mxGeometry>
        </mxCell>
        <mxCell id="srvxrOHvQ5lq2VC3O4od-20" value="" style="endArrow=none;html=1;rounded=0;entryX=0.5;entryY=1;entryDx=0;entryDy=0;exitX=0.5;exitY=0;exitDx=0;exitDy=0;" edge="1" parent="1" source="srvxrOHvQ5lq2VC3O4od-5" target="srvxrOHvQ5lq2VC3O4od-7">
          <mxGeometry width="50" height="50" relative="1" as="geometry">
            <mxPoint x="400" y="330" as="sourcePoint" />
            <mxPoint x="580" y="200" as="targetPoint" />
          </mxGeometry>
        </mxCell>
        <mxCell id="srvxrOHvQ5lq2VC3O4od-22" value="" style="endArrow=none;html=1;rounded=0;entryX=1;entryY=0.5;entryDx=0;entryDy=0;fontStyle=1;exitX=0;exitY=0.5;exitDx=0;exitDy=0;" edge="1" parent="1" source="srvxrOHvQ5lq2VC3O4od-7" target="srvxrOHvQ5lq2VC3O4od-6">
          <mxGeometry width="50" height="50" relative="1" as="geometry">
            <mxPoint x="535" y="180" as="sourcePoint" />
            <mxPoint x="270" y="180" as="targetPoint" />
          </mxGeometry>
        </mxCell>
        <mxCell id="srvxrOHvQ5lq2VC3O4od-26" value="Network 1&lt;div&gt;10.0.1.0/24&lt;/div&gt;" style="text;html=1;align=center;verticalAlign=middle;whiteSpace=wrap;rounded=0;fillColor=#fff2cc;strokeColor=#d6b656;dashed=1;fontStyle=1" vertex="1" parent="1">
          <mxGeometry x="100" y="330" width="60" height="30" as="geometry" />
        </mxCell>
        <mxCell id="srvxrOHvQ5lq2VC3O4od-27" value="P2P&lt;br&gt;&lt;div&gt;10.0.2.0/24&lt;/div&gt;" style="text;html=1;align=center;verticalAlign=middle;whiteSpace=wrap;rounded=0;fillColor=#dae8fc;strokeColor=#6c8ebf;dashed=1;fontStyle=1" vertex="1" parent="1">
          <mxGeometry x="377.5" y="110" width="60" height="30" as="geometry" />
        </mxCell>
        <mxCell id="srvxrOHvQ5lq2VC3O4od-28" value="Network 3&lt;div&gt;10.0.3.0/24&lt;/div&gt;" style="text;html=1;align=center;verticalAlign=middle;whiteSpace=wrap;rounded=0;fillColor=#f8cecc;strokeColor=#b85450;dashed=1;fontStyle=1" vertex="1" parent="1">
          <mxGeometry x="590" y="370" width="60" height="30" as="geometry" />
        </mxCell>
        <mxCell id="srvxrOHvQ5lq2VC3O4od-29" value="10.0.1.1" style="text;html=1;align=center;verticalAlign=middle;whiteSpace=wrap;rounded=0;" vertex="1" parent="1">
          <mxGeometry x="230" y="190" width="60" height="30" as="geometry" />
        </mxCell>
        <mxCell id="srvxrOHvQ5lq2VC3O4od-30" value="10.0.1.2" style="text;html=1;align=center;verticalAlign=middle;whiteSpace=wrap;rounded=0;" vertex="1" parent="1">
          <mxGeometry x="110" y="430" width="60" height="30" as="geometry" />
        </mxCell>
        <mxCell id="srvxrOHvQ5lq2VC3O4od-31" value="10.0.1.3" style="text;html=1;align=center;verticalAlign=middle;whiteSpace=wrap;rounded=0;" vertex="1" parent="1">
          <mxGeometry x="300" y="430" width="60" height="30" as="geometry" />
        </mxCell>
        <mxCell id="srvxrOHvQ5lq2VC3O4od-32" value="10.0.2.1" style="text;html=1;align=center;verticalAlign=middle;whiteSpace=wrap;rounded=0;" vertex="1" parent="1">
          <mxGeometry x="275" y="130" width="60" height="30" as="geometry" />
        </mxCell>
        <mxCell id="srvxrOHvQ5lq2VC3O4od-33" value="10.0.2.2" style="text;html=1;align=center;verticalAlign=middle;whiteSpace=wrap;rounded=0;" vertex="1" parent="1">
          <mxGeometry x="480" y="130" width="60" height="30" as="geometry" />
        </mxCell>
        <mxCell id="srvxrOHvQ5lq2VC3O4od-34" value="10.0.3.1" style="text;html=1;align=center;verticalAlign=middle;whiteSpace=wrap;rounded=0;" vertex="1" parent="1">
          <mxGeometry x="580" y="190" width="60" height="30" as="geometry" />
        </mxCell>
        <mxCell id="srvxrOHvQ5lq2VC3O4od-35" value="10.0.3.2" style="text;html=1;align=center;verticalAlign=middle;whiteSpace=wrap;rounded=0;" vertex="1" parent="1">
          <mxGeometry x="580" y="430" width="60" height="30" as="geometry" />
        </mxCell>
      </root>
    </mxGraphModel>
  </diagram>
</mxfile>
